<?xml version="1.0" encoding="UTF-8" standalone="no"?>
<!-- Created with Inkscape (http://www.inkscape.org/) -->
<svg
   xmlns:svg="http://www.w3.org/2000/svg"
   xmlns="http://www.w3.org/2000/svg"
   version="1.0"
   width="480"
   height="290"
   id="svg2">
  <defs
     id="defs4" />
  <g
     id="layer1">
    <g
       transform="translate(54.70075,-1.519452)"
       id="g3715">
      <path
         d="M 8.1087066,238.41019 C 7.3827776,234.78055 7.3827776,181.98037 7.3827776,181.98037 L 41.535198,141.04482 L 76.345894,181.98037 L 77.071823,208.83969 L 88.845379,208.99842 L 89.412592,139.87657 L 96.263368,129.71357 L 96.104648,72.172784 L 116.27191,5.5799837 L 136.59789,73.817174 L 136.59789,129.71357 L 143.85716,142.78027 L 143.85716,167.46182 L 163.45719,154.39512 L 212.82028,182.70628 L 212.82028,223.35823 L 222.25734,223.35823 L 222.25734,128.26172 L 229.99275,128.26172 L 229.99275,87.609774 L 236.51485,87.660184 L 236.79845,46.606594 L 271.93783,46.606594 L 271.93783,93.417204 L 279.00458,93.417204 L 279.00458,167.46182 L 291.22046,167.46182 L 291.22046,208.30628 L 303.62888,208.30628 L 303.62888,140.6025 L 332.75705,114.78653 L 359.45764,142.05434 L 359.45764,180.52852 L 387.04289,153.6692 L 414.62814,182.70628 L 415.19534,238.28528 L 8.1087066,238.41019 z "
         style="fill:black;fill-opacity:1;fill-rule:evenodd;stroke:none;stroke-width:1px;stroke-linecap:butt;stroke-linejoin:miter;stroke-opacity:1"
         id="path1924" />
      <path
         d="M -31.082934,287.45892 L 422.41195,59.911622 L 404.07814,22.058488 L -51.813459,248.406 L -31.082934,287.45892 z "
         style="fill:#c00;fill-opacity:1;fill-rule:evenodd;stroke:none;stroke-width:1px;stroke-linecap:butt;stroke-linejoin:miter;stroke-opacity:1"
         id="path2828" />
    </g>
  </g>
</svg>
